<?xml version="1.0" standalone="no"?><!DOCTYPE svg PUBLIC "-//W3C//DTD SVG 1.1//EN" "http://www.w3.org/Graphics/SVG/1.1/DTD/svg11.dtd"><svg t="1722506326652" class="icon" viewBox="0 0 1024 1024" version="1.1" xmlns="http://www.w3.org/2000/svg" p-id="1972" xmlns:xlink="http://www.w3.org/1999/xlink" width="200" height="200"><path d="M695.168 97.856a163.328 163.328 0 0 1 231.04 231.04l-563.52 563.392-2.112 2.176a200.064 200.064 0 0 1-30.592 26.88c-9.6 6.4-20.096 11.392-31.04 14.912-12.48 4.032-25.472 5.504-40.192 7.104l-2.944 0.32-144.448 16a42.624 42.624 0 0 1-47.104-47.04l16-144.384 0.384-3.008c1.6-14.72 3.072-27.712 7.04-40.192a128 128 0 0 1 14.976-31.04c7.232-10.88 16.448-20.16 26.88-30.592l2.176-2.112 563.456-563.456z m170.688 60.288a78.016 78.016 0 0 0-110.336 0L192 721.664c-13.76 13.76-16.32 16.576-18.176 19.328a42.816 42.816 0 0 0-4.992 10.368c-1.024 3.2-1.6 6.912-3.84 26.24l-10.112 91.456 91.392-10.176c19.328-2.176 23.104-2.752 26.24-3.84a42.88 42.88 0 0 0 10.432-4.928c2.752-1.856 5.568-4.416 19.328-18.176l563.52-563.456a78.016 78.016 0 0 0 0-110.336z" fill="#ffffff" p-id="1973"></path></svg>