<?xml version="1.0" standalone="no"?><!DOCTYPE svg PUBLIC "-//W3C//DTD SVG 1.1//EN" "http://www.w3.org/Graphics/SVG/1.1/DTD/svg11.dtd"><svg t="1722506269934" class="icon" viewBox="0 0 1024 1024" version="1.1" xmlns="http://www.w3.org/2000/svg" p-id="1548" xmlns:xlink="http://www.w3.org/1999/xlink" width="200" height="200"><path d="M271.36 351.68c-64.32 53.632-109.312 116.672-132.032 152.64a393.088 393.088 0 0 0-4.672 7.68l1.28 2.112 3.392 5.504c22.72 36.032 67.712 99.072 131.968 152.704C335.488 725.76 416.32 768 512 768c95.744 0 176.576-42.176 240.704-95.68 64.32-53.632 109.248-116.672 132.032-152.704l3.392-5.504a62.4 62.4 0 0 0 1.28-2.048V512a62.4 62.4 0 0 0-1.28-2.112l-3.456-5.568c-22.72-35.968-67.648-99.008-131.968-152.64C688.64 298.112 607.744 256 512.064 256c-95.744 0-176.64 42.112-240.768 95.68z m-54.72-65.472C290.368 224.64 389.952 170.688 512 170.688c122.112 0 221.632 53.952 295.424 115.52 73.6 61.44 124.16 132.48 149.44 172.608l1.024 1.6c4.992 7.872 11.52 18.176 14.784 32.512 2.688 11.584 2.688 26.56 0 38.144-3.2 14.336-9.792 24.64-14.784 32.512l-1.024 1.6c-25.28 40.064-75.776 111.168-149.44 172.608-73.792 61.568-173.312 115.52-295.424 115.52-122.048 0-221.632-53.952-295.36-115.52-73.664-61.44-124.16-132.48-149.44-172.608a596.48 596.48 0 0 0-1.024-1.6c-5.056-7.872-11.52-18.176-14.848-32.512a92.16 92.16 0 0 1 0-38.144 99.776 99.776 0 0 1 15.872-34.112c25.28-40.064 75.776-111.168 149.44-172.608zM512 426.688a85.312 85.312 0 1 0 0 170.624 85.312 85.312 0 0 0 0-170.624zM341.376 512a170.688 170.688 0 1 1 341.312 0 170.688 170.688 0 0 1-341.312 0z" fill="#ffffff" p-id="1549"></path></svg>