<?xml version="1.0" standalone="no"?><!DOCTYPE svg PUBLIC "-//W3C//DTD SVG 1.1//EN" "http://www.w3.org/Graphics/SVG/1.1/DTD/svg11.dtd"><svg t="1722506316847" class="icon" viewBox="0 0 1024 1024" version="1.1" xmlns="http://www.w3.org/2000/svg" p-id="1762" xmlns:xlink="http://www.w3.org/1999/xlink" width="200" height="200"><path d="M341.312 128c0-23.552 19.136-42.688 42.688-42.688h256a42.688 42.688 0 1 1 0 85.376H384A42.688 42.688 0 0 1 341.312 128zM212.992 213.312H128a42.688 42.688 0 0 0 0 85.376h45.44l27.328 410.688c2.176 32.192 3.968 58.88 7.168 80.64 3.264 22.592 8.576 43.2 19.52 62.464 17.088 29.952 42.88 54.08 73.856 69.12 19.968 9.6 40.96 13.504 63.68 15.36 21.888 1.728 48.64 1.728 80.896 1.728h132.224c32.256 0 59.008 0 80.896-1.728 22.784-1.856 43.712-5.76 63.68-15.36a170.688 170.688 0 0 0 73.856-69.12c10.944-19.2 16.256-39.872 19.52-62.528 3.2-21.696 4.992-48.384 7.168-80.64l27.328-410.624H896a42.688 42.688 0 0 0 0-85.376H212.992z m552.064 85.376H258.944l26.88 403.328c2.304 34.304 3.84 57.6 6.528 75.52 2.56 17.472 5.696 26.432 9.28 32.704 8.512 14.976 21.376 27.008 36.928 34.56 6.464 3.2 15.616 5.696 33.216 7.04 18.048 1.472 41.408 1.472 75.84 1.472h128.768c34.432 0 57.792 0 75.84-1.472 17.6-1.344 26.752-3.84 33.28-7.04 15.488-7.552 28.352-19.584 36.864-34.56 3.584-6.272 6.72-15.232 9.28-32.64 2.624-17.984 4.224-41.28 6.528-75.584l26.88-403.328z" fill="#ffffff" p-id="1763"></path></svg>