<?xml version="1.0" encoding="utf-8"?>
<svg version="1.1" xmlns:xlink="http://www.w3.org/1999/xlink" width="10px" height="10px" xmlns="http://www.w3.org/2000/svg">
  <g transform="matrix(1 0 0 1 -322 -310 )">
    <path d="M 327 311  C 329.24 311  331 312.76  331 315  C 331 317.24  329.24 319  327 319  C 324.76 319  323 317.24  323 315  C 323 312.76  324.76 311  327 311  Z " fill-rule="nonzero" fill="#ffffff" stroke="none" />
    <path d="M 327 311  C 329.24 311  331 312.76  331 315  C 331 317.24  329.24 319  327 319  C 324.76 319  323 317.24  323 315  C 323 312.76  324.76 311  327 311  Z " stroke-width="2" stroke="#409eff" fill="none" />
  </g>
</svg>